# xmcd
#
# Track frame offsets:
#	150
#	15167
#	32362
#	49487
#	64972
#	74952
#	83320
#	99455
#	112627
#	126550
#	138482
#	148417
#	160410
#	180537
#	189645
#	200872
#
# Disc length: 2804
#
# Revision: 1
# Processed by: cddbd v1.5.1PL0 Copyright (c) Steve Scherf et al.
# Submitted via: dBpowerAMP V4.0
# Normalized: r0:TRMNUM
#
DISCID=ec0af210
DTITLE=Otis Blackwell - All Shook Up
DYEAR=1995
DGENRE=Blues
TTITLE0=All Shook Up
TTITLE1=Fever
TTITLE2=Back Trail
TTITLE3=Daddy Rollin Stone
TTITLE4=Great Balls Of Fire
TTITLE5=Dont Be Cruel
TTITLE6=Searchin
TTITLE7=Lets Talk About Us
TTITLE8=Hey Little Girl
TTITLE9=Breathless
TTITLE10=Handy Man
TTITLE11=Return To Sender
TTITLE12=Hello Bottle
TTITLE13=One Broken Heart For Sale
TTITLE14=Sleep Is Just Around The Corner
TTITLE15=Clinging To A Dream
EXTD=
EXTT0=
EXTT1=
EXTT2=
EXTT3=
EXTT4=
EXTT5=
EXTT6=
EXTT7=
EXTT8=
EXTT9=
EXTT10=
EXTT11=
EXTT12=
EXTT13=
EXTT14=
EXTT15=
PLAYORDER=
